<svg xmlns="http://www.w3.org/2000/svg" version="1.1" xmlns:xlink="http://www.w3.org/1999/xlink" xmlns:svgjs="http://svgjs.dev/svgjs" width="1800" height="800" preserveAspectRatio="none" viewBox="0 0 1800 800"><g mask="url(&quot;#SvgjsMask1089&quot;)" fill="none"><path d="M1506.8366318645913 769.3377236551466L1368.3281791570073 672.3530609635334 1271.3435164653943 810.8615136711173 1409.851969172978 907.8461763627305z" fill="rgba(198, 183, 189, 0.59)" class="triangle-float3"></path><path d="M981.2275676427713 290.764884791612L811.8934561800249 222.16166839096758 831.3573664382455 380.68249637692463z" fill="rgba(198, 183, 189, 0.59)" class="triangle-float1"></path><path d="M1601.3795800053026 688.5106323574387L1468.1269888633049 517.9550933571933 1297.5714498630596 651.2076844991909 1430.824041005057 821.7632234994363z" fill="rgba(198, 183, 189, 0.59)" class="triangle-float2"></path><path d="M264.49008971884257 838.6979481315423L388.7980073334242 647.2805410720983 197.3806002739803 522.9726234575166 73.07268265939865 714.3900305169607z" fill="rgba(198, 183, 189, 0.59)" class="triangle-float3"></path><path d="M125.94129581534705 274.99361114691743L255.00662122368684 490.2588170661036 364.7098479791471 300.247254571397z" fill="rgba(198, 183, 189, 0.59)" class="triangle-float1"></path><path d="M1768.402466257106 878.2186366165669L1792.100650468395 709.5972942040769 1623.4793080559052 685.8991099927878 1599.781123844616 854.5204524052778z" fill="rgba(198, 183, 189, 0.59)" class="triangle-float1"></path><path d="M1219.4387377918283 224.49026720738215L1288.8694509416432 43.617075626907024 1038.5655462113532 155.05955405756714z" fill="rgba(198, 183, 189, 0.59)" class="triangle-float3"></path><path d="M1517.5657639357585 443.3316512973076L1669.369954920873 606.1217157603554 1680.3558283988064 291.52746031219317z" fill="rgba(198, 183, 189, 0.59)" class="triangle-float2"></path><path d="M1634.8966173917697 514.0968129250219L1522.8084878387108 375.679500458617 1384.3911753723057 487.76763001167603 1496.4793049253649 626.184942478081z" fill="rgba(198, 183, 189, 0.59)" class="triangle-float2"></path><path d="M432.55606628223507 91.6557351884568L481.9014568912778-24.594720020353662 282.85307877354074-40.487578329512445z" fill="rgba(198, 183, 189, 0.59)" class="triangle-float3"></path><path d="M1610.2509147936387 625.4112585904126L1610.2509147936387 487.93932734999754 1472.7789835532237 487.9393273499976 1472.7789835532237 625.4112585904126z" fill="rgba(198, 183, 189, 0.59)" class="triangle-float2"></path><path d="M982.487,681.53C1007.823,680.96,1033.075,672.729,1046.678,651.347C1061.285,628.386,1064.604,598.277,1050.099,575.251C1036.318,553.375,1008.33,548.669,982.487,549.447C958.291,550.175,934.928,558.929,921.572,579.118C906.648,601.678,899.258,631.107,913.086,654.355C926.698,677.241,955.866,682.129,982.487,681.53" fill="rgba(198, 183, 189, 0.59)" class="triangle-float3"></path><path d="M746.3658514216164 372.31328869370134L556.0134420242857 543.3791655989921 767.5435783658747 616.2148325843289z" fill="rgba(198, 183, 189, 0.59)" class="triangle-float1"></path><path d="M1607.7366933611106 483.76777990953406L1547.2640413031459 308.14244600088796 1371.6387073944998 368.61509805885265 1432.1113594524645 544.2404319674988z" fill="rgba(198, 183, 189, 0.59)" class="triangle-float2"></path><path d="M524.0470231036064 208.90026444667632L463.9696945387419 95.9112426474286 350.9806727394942 155.9885712122931 411.0580013043587 268.9775930115408z" fill="rgba(198, 183, 189, 0.59)" class="triangle-float3"></path><path d="M350.18757524944385 203.54799476711463L257.5608851007245 28.941291638747302 163.45765966010765 173.84755147669824z" fill="rgba(198, 183, 189, 0.59)" class="triangle-float2"></path><path d="M1255.117,514.043C1293.933,515.87,1335.018,503.028,1354.237,469.254C1373.3,435.754,1361.037,395.381,1341.57,362.114C1322.348,329.267,1293.168,300.582,1255.117,299.875C1216.032,299.149,1181.051,324.164,1162.917,358.796C1145.989,391.125,1152.31,429.249,1170.944,460.626C1189.131,491.249,1219.539,512.368,1255.117,514.043" fill="rgba(198, 183, 189, 0.59)" class="triangle-float1"></path><path d="M537.2238088426608 596.2759830852907L574.5719515817282 456.8908168147566 346.8201308063933 470.5611858414227z" fill="rgba(198, 183, 189, 0.59)" class="triangle-float1"></path><path d="M761.062,837.312C812.993,839.395,858.214,806.718,886.007,762.8C916.194,715.099,933.296,656.342,907.297,606.235C879.529,552.717,821.173,517.308,761.062,521.996C706.69,526.236,672.817,576.966,649.63,626.328C630.319,667.437,631.138,713.266,652.35,753.428C675.261,796.807,712.044,835.346,761.062,837.312" fill="rgba(198, 183, 189, 0.59)" class="triangle-float3"></path><path d="M274.112,464.059C327.919,463.402,389.279,465.258,418.082,419.804C448.199,372.276,432.763,309.907,401.392,263.197C373.551,221.742,324.018,203.699,274.112,205.435C227.424,207.059,187.803,233.081,161.296,271.548C129.595,317.553,95.67,375.194,123.918,423.397C152.025,471.359,218.525,464.738,274.112,464.059" fill="rgba(198, 183, 189, 0.59)" class="triangle-float2"></path></g><defs><mask id="SvgjsMask1089"><rect width="1800" height="800" fill="#ffffff"></rect></mask><style>
                @keyframes float1 {
                    0%{transform: translate(0, 0)}
                    50%{transform: translate(-10px, 0)}
                    100%{transform: translate(0, 0)}
                }

                .triangle-float1 {
                    animation: float1 5s infinite;
                }

                @keyframes float2 {
                    0%{transform: translate(0, 0)}
                    50%{transform: translate(-5px, -5px)}
                    100%{transform: translate(0, 0)}
                }

                .triangle-float2 {
                    animation: float2 4s infinite;
                }

                @keyframes float3 {
                    0%{transform: translate(0, 0)}
                    50%{transform: translate(0, -10px)}
                    100%{transform: translate(0, 0)}
                }

                .triangle-float3 {
                    animation: float3 6s infinite;
                }
            </style></defs></svg>